# xmcd
#
# Track frame offsets:
#	150
#	11286
#	21635
#	35558
#	45942
#	60065
#	73700
#	84874
#	94575
#
# Disc length: 1400 seconds
#
# Revision: 1
# Processed by: cddbd v1.4PL0 Copyright (c) Steve Scherf et al.
# Submitted via: audiograbber 1.81.02
#
DISCID=5d057609
DTITLE=The Guitar of Chet Atkins - Chet Video
DYEAR=1997
DGENRE=
TTITLE0=Maybelle V
TTITLE1=Petite Waltz V
TTITLE2=Danny Boy V
TTITLE3=Happy Again V
TTITLE4=Young Thing V
TTITLE5=Mr. Bojangels V
TTITLE6=When you wish upon a Star V
TTITLE7=Lover Come Back V
TTITLE8=Bye Bye Black Bird V
EXTD=
EXTT0=
EXTT1=
EXTT2=
EXTT3=
EXTT4=
EXTT5=
EXTT6=
EXTT7=
EXTT8=
PLAYORDER=
